<?xml version="1.0" encoding="utf-8"?>
<!-- Generator: Adobe Illustrator 24.3.0, SVG Export Plug-In . SVG Version: 6.00 Build 0)  -->
<svg version="1.1" id="Layer_1" xmlns="http://www.w3.org/2000/svg" xmlns:xlink="http://www.w3.org/1999/xlink" x="0px" y="0px"
	 viewBox="0 0 300 300" enable-background="new 0 0 300 300" xml:space="preserve">
<g>
	<g>
		<g>
			<path fill="#FFDA88" d="M176.524,150c-27.468,0-52.209,11.485-69.834,29.853c3.352,6.352,5.273,13.571,5.273,21.258
				c0,20.543-13.54,37.913-32.178,43.687c-0.013,0.688-0.102,1.356-0.102,2.044h199.064C278.746,193.356,230.01,150,176.524,150z"/>
		</g>
		<g>
			<path fill="#FFE2A9" d="M128.103,201.111c0-7.687-1.92-14.906-5.273-21.258c15.907-16.576,37.637-27.463,61.911-29.443
				c-2.727-0.221-5.459-0.41-8.217-0.41c-27.468,0-52.209,11.485-69.834,29.853c3.352,6.352,5.273,13.571,5.273,21.258
				c0,20.543-13.54,37.913-32.178,43.687c-0.013,0.688-0.102,1.356-0.102,2.044h16.14c0-0.688,0.089-1.356,0.102-2.044
				C114.563,239.024,128.103,221.654,128.103,201.111z"/>
		</g>
		<g>
			
				<ellipse transform="matrix(0.1602 -0.9871 0.9871 0.1602 52.895 259.9486)" fill="#E5E5E4" cx="179.214" cy="98.889" rx="45.731" ry="45.731"/>
		</g>
		<g>
			<path fill="#EFEFEF" d="M149.623,98.889c0-22.497,16.261-41.16,37.661-44.974c-2.622-0.473-5.312-0.756-8.07-0.756
				c-25.256,0-45.731,20.475-45.731,45.731c0,25.256,20.475,45.731,45.731,45.731c2.758,0,5.448-0.284,8.07-0.757
				C165.885,140.049,149.623,121.386,149.623,98.889z"/>
		</g>
		<g>
			<path fill="#E5E5E4" d="M145.525,155.16l30.999,27.121l30.814-27.394C197.472,151.755,187.1,150,176.524,150
				C165.669,150,155.271,151.865,145.525,155.16z"/>
		</g>
		<g>
			<path fill="#EFEFEF" d="M163.515,150.972c-1.392,0.189-2.779,0.389-4.151,0.635c-1.817,0.336-3.625,0.71-5.406,1.146
				c-0.736,0.173-1.461,0.368-2.191,0.562c-2.101,0.562-4.193,1.151-6.241,1.844l5.149,4.508
				c10.424-5.018,21.862-8.265,33.946-9.263c-2.685-0.215-5.38-0.405-8.097-0.405c-3,0-5.953,0.184-8.885,0.447
				C166.252,150.578,164.886,150.783,163.515,150.972z"/>
		</g>
		<g>
			<path fill="#7FD3B9" d="M207.397,154.907l-30.873,27.373l21.52,10.76l23.259-32.564
				C216.812,158.312,212.173,156.431,207.397,154.907z"/>
		</g>
		<g>
			<path fill="#7FD3B9" d="M155.003,193.041l21.52-10.76l-30.999-27.121c-4.666,1.576-9.174,3.483-13.492,5.727L155.003,193.041z"/>
		</g>
		<g>
			<path fill="#BBEAD9" d="M145.525,155.16c-4.666,1.576-9.174,3.483-13.492,5.727l4.928,6.899
				c4.334-3.058,8.895-5.796,13.713-8.117L145.525,155.16z"/>
		</g>
		<g>
			<polygon fill="#FE6F80" points="187.284,209.181 193.305,190.671 176.524,182.281 159.711,190.687 165.764,209.181 			"/>
		</g>
		<g>
			<rect x="165.764" y="209.181" fill="#FE6F80" width="21.521" height="37.661"/>
		</g>
		<g>
			<rect x="165.764" y="209.181" fill="#FFA1AA" width="10.76" height="37.661"/>
		</g>
		<g>
			<polygon fill="#FFA1AA" points="181.904,184.971 176.524,182.281 159.711,190.687 165.764,209.181 176.524,209.181 
				170.471,190.687 			"/>
		</g>
		<g>
			<path fill="#7FD3B9" d="M80.861,157.812l9.581-23.953c-26.901,5.38-48.421,0-48.421,0l9.581,23.953
				c-18.071,6.111-31.101,23.165-31.101,43.299c0,25.261,20.475,45.731,45.731,45.731c25.256,0,45.731-20.47,45.731-45.731
				C111.963,180.978,98.933,163.923,80.861,157.812z"/>
		</g>
		<g>
			<path fill="#BBEAD9" d="M31.261,201.111c0-20.133,13.03-37.188,31.101-43.299l-8.869-22.171
				c-7.153-0.71-11.472-1.781-11.472-1.781l9.581,23.953c-18.071,6.111-31.101,23.165-31.101,43.299
				c0,25.261,20.475,45.731,45.731,45.731c1.823,0,3.612-0.137,5.38-0.342C48.896,243.831,31.261,224.549,31.261,201.111z"/>
		</g>
		<g>
			<path fill="#FFDA88" d="M80.241,205.131c-1.106-1.944-2.469-3.463-4.101-4.576c-1.631-1.098-4.043-2.333-7.232-3.683
				c-4.358-1.75-6.526-3.836-6.526-6.231c0-1.214,0.417-2.259,1.256-3.147c0.84-0.857,1.846-1.309,3.003-1.309
				c1.513,0,3.993,1.019,7.424,3.047l4.752-7.745c-2.105-3.047-4.516-4.98-9.896-4.687v-3.478c0-1.808-1.413-3.273-5.38-3.273
				c-3.967,0-5.38,1.465-5.38,3.273v4.009c0,0-1.952,0.673-4.421,3.242c-2.708,2.806-3.223,7.54-3.223,10.781
				c0,6.505,5.422,9.31,6.709,10.287c1.282,0.977,3.384,2.118,5.937,3.221c5.243,2.243,7.668,4.019,7.668,6.562
				c0,1.224-0.562,2.407-1.72,3.526c-1.164,1.124-2.367,1.597-3.628,1.691c-3.549,0.247-6.48-2.248-10.565-5.259l-5.52,7.692
				c3.743,4.429,8.764,6.431,8.764,6.526v3.268c0,1.813,1.923,3.273,5.38,3.273c3.252,0,5.38-1.461,5.38-3.273V225.6
				c0-0.042,4.54-0.61,7.618-3.263c3.032-2.622,5.302-6.678,5.302-10.849C81.842,209.202,81.342,207.095,80.241,205.131z"/>
		</g>
	</g>
	<g>
		<g>
			<path fill="#161616" d="M179.214,150c-28.182,0-51.111-22.929-51.111-51.111s22.928-51.111,51.111-51.111
				s51.111,22.929,51.111,51.111S207.396,150,179.214,150z M179.214,58.538c-22.251,0-40.351,18.1-40.351,40.351
				c0,22.251,18.1,40.351,40.351,40.351s40.351-18.1,40.351-40.351C219.565,76.638,201.465,58.538,179.214,58.538z"/>
		</g>
		<g>
			<path fill="#161616" d="M176.524,187.661c-1.264,0-2.527-0.441-3.544-1.329l-30.999-27.121c-1.447-1.271-2.109-3.215-1.734-5.102
				c0.376-1.886,1.731-3.431,3.554-4.046c21.137-7.135,43.435-7.203,65.166-0.305c1.841,0.583,3.231,2.117,3.633,4.009
				c0.402,1.891-0.242,3.856-1.686,5.138L180.099,186.3C179.08,187.209,177.801,187.661,176.524,187.661z M156.53,157.639
				l19.965,17.47l19.794-17.601C182.95,154.65,169.594,154.666,156.53,157.639z"/>
		</g>
		<g>
			<path fill="#161616" d="M198.042,198.421c-0.812,0-1.634-0.184-2.404-0.567l-21.521-10.76c-1.597-0.799-2.695-2.338-2.926-4.109
				c-0.234-1.771,0.426-3.546,1.763-4.729l30.872-27.373c1.419-1.266,3.397-1.671,5.204-1.103c4.855,1.55,9.77,3.52,14.609,5.853
				c1.429,0.688,2.482,1.97,2.877,3.51c0.394,1.54,0.089,3.168-0.833,4.461l-23.26,32.564
				C201.383,197.622,199.734,198.421,198.042,198.421z M186.047,181.025l10.293,5.149l16.76-23.464
				c-1.492-0.61-2.982-1.182-4.466-1.708L186.047,181.025z"/>
		</g>
		<g>
			<path fill="#161616" d="M155.006,198.421c-1.692,0-3.341-0.799-4.379-2.254l-22.97-32.155c-0.906-1.266-1.219-2.869-0.854-4.382
				c0.363-1.518,1.366-2.8,2.75-3.52c4.513-2.343,9.308-4.377,14.252-6.047c1.81-0.609,3.822-0.21,5.264,1.046l30.999,27.121
				c1.348,1.182,2.02,2.958,1.792,4.734c-0.226,1.781-1.327,3.326-2.929,4.13l-21.52,10.76
				C156.64,198.237,155.818,198.421,155.006,198.421z M140.145,162.988l16.563,23.186l10.24-5.123l-22.592-19.766
				C142.935,161.822,141.53,162.389,140.145,162.988z"/>
		</g>
		<g>
			<path fill="#161616" d="M187.284,214.561h-21.521c-2.327,0-4.39-1.497-5.112-3.704l-6.053-18.494
				c-0.83-2.538,0.32-5.296,2.706-6.489l16.813-8.406c1.513-0.757,3.3-0.757,4.813,0l16.781,8.391
				c2.38,1.193,3.533,3.946,2.711,6.478l-6.021,18.51C191.679,213.064,189.614,214.561,187.284,214.561z M169.665,203.801h13.713
				l3.378-10.387l-10.232-5.117l-10.256,5.128L169.665,203.801z"/>
		</g>
		<g>
			<path fill="#161616" d="M187.284,252.222h-21.521c-2.971,0-5.38-2.406-5.38-5.38v-37.661c0-2.974,2.409-5.38,5.38-5.38h21.521
				c2.971,0,5.38,2.406,5.38,5.38v37.661C192.664,249.816,190.255,252.222,187.284,252.222z M171.144,241.462h10.76v-26.9h-10.76
				V241.462z"/>
		</g>
		<g>
			<path fill="#161616" d="M80.241,205.131c-1.106-1.944-2.469-3.463-4.101-4.576c-1.631-1.098-4.043-2.333-7.232-3.683
				c-4.358-1.75-6.526-3.836-6.526-6.231c0-1.214,0.417-2.259,1.256-3.147c0.84-0.857,1.846-1.309,3.003-1.309
				c1.513,0,3.993,1.019,7.424,3.047l4.752-7.745c-2.105-3.047-4.516-4.98-9.896-4.687v-3.478c0-1.808-1.413-3.273-5.38-3.273
				c-3.967,0-5.38,1.465-5.38,3.273v4.009c0,0-1.952,0.673-4.421,3.242c-2.708,2.806-3.223,7.54-3.223,10.781
				c0,6.505,5.422,9.31,6.709,10.287c1.282,0.977,3.384,2.118,5.937,3.221c5.243,2.243,7.668,4.019,7.668,6.562
				c0,1.224-0.562,2.407-1.72,3.526c-1.164,1.124-2.367,1.597-3.628,1.691c-3.549,0.247-6.48-2.248-10.565-5.259l-5.52,7.692
				c3.743,4.429,8.764,6.431,8.764,6.526v3.268c0,1.813,1.923,3.273,5.38,3.273c3.252,0,5.38-1.461,5.38-3.273V225.6
				c0-0.042,4.54-0.61,7.618-3.263c3.032-2.622,5.302-6.678,5.302-10.849C81.842,209.202,81.342,207.095,80.241,205.131z"/>
		</g>
		<g>
			<path fill="#161616" d="M278.746,252.222h-26.901c-2.971,0-5.38-2.406-5.38-5.38s2.409-5.38,5.38-5.38h21.336
				c-3.173-46.445-46.979-86.082-96.658-86.082c-23.851,0-46.201,9.053-63.34,25.582c2.761,6.373,4.159,13.135,4.159,20.149
				c0,16.198-7.466,30.894-19.653,40.351h132.635c2.971,0,5.38,2.406,5.38,5.38s-2.409,5.38-5.38,5.38H79.682
				c-2.971,0-5.38-2.406-5.38-5.38c0-0.499,0.031-0.993,0.066-1.482l0.037-0.667c0.045-2.317,1.571-4.345,3.788-5.033
				c16.981-5.259,28.39-20.753,28.39-38.549c0-6.594-1.566-12.899-4.65-18.746c-1.082-2.049-0.73-4.566,0.875-6.236
				c19.498-20.317,45.676-31.508,73.716-31.508c58.327,0,107.602,46.813,107.602,102.222
				C284.126,249.816,281.717,252.222,278.746,252.222z"/>
		</g>
		<g>
			<path fill="#161616" d="M66.232,252.222c-24.78,0-45.923-17.706-50.273-42.095c-0.523-2.926,1.426-5.722,4.35-6.242
				c2.945-0.515,5.719,1.424,6.242,4.35c3.434,19.251,20.123,33.226,39.681,33.226c22.251,0,40.351-18.1,40.351-40.351
				c0-17.301-11.028-32.654-27.444-38.202c-1.4-0.473-2.543-1.503-3.163-2.842c-0.617-1.345-0.657-2.879-0.11-4.25l6.058-15.142
				c-12.87,1.566-23.929,0.962-31.351,0.074l6.026,15.069c0.546,1.371,0.507,2.905-0.11,4.25c-0.62,1.34-1.763,2.37-3.163,2.842
				c-12.213,4.13-21.783,13.976-25.597,26.338c-0.877,2.837-3.896,4.45-6.728,3.552c-2.84-0.872-4.429-3.888-3.554-6.725
				c4.269-13.829,14.231-25.177,27.168-31.24l-7.589-18.978c-0.749-1.87-0.384-4.004,0.943-5.527
				c1.327-1.524,3.402-2.165,5.351-1.692c0.202,0.053,20.787,5.002,46.067-0.052c1.947-0.378,3.927,0.315,5.191,1.834
				c1.264,1.518,1.595,3.604,0.862,5.438l-7.589,18.972c17.851,8.317,29.493,26.27,29.493,46.283
				C117.343,229.294,94.414,252.222,66.232,252.222z"/>
		</g>
	</g>
</g>
</svg>
